<?xml version="1.0" encoding="UTF-8"?>
<svg id="Layer_1" data-name="Layer 1" xmlns="http://www.w3.org/2000/svg" xmlns:xlink="http://www.w3.org/1999/xlink" viewBox="0 0 253.5 240.75">
  <defs>
    <style>
      .cls-1 {
        fill: #00bf63;
      }

      .cls-1, .cls-2, .cls-3 {
        stroke-width: 0px;
      }

      .cls-2 {
        fill: none;
      }

      .cls-4 {
        clip-path: url(#clippath);
      }

      .cls-3 {
        fill: #a16ce6;
      }
    </style>
    <clipPath id="clippath">
      <rect class="cls-2" width="253.5" height="240.75"/>
    </clipPath>
  </defs>
  <g class="cls-4">
    <path class="cls-3" d="M120.23,240.66C53.94,240.66,0,186.72,0,120.4S53.94.11,120.23.11c21.73,0,42.97,5.81,61.45,16.83,3.89,2.32,5.17,7.35,2.85,11.21-2.34,3.91-7.4,5.08-11.21,2.85-15.95-9.51-34.29-14.54-53.09-14.54-57.27,0-103.89,46.62-103.89,103.94s46.62,103.86,103.89,103.86,103.89-46.59,103.89-103.86c0-4.53,3.67-8.17,8.2-8.17s8.2,3.65,8.2,8.17c0,66.32-53.97,120.26-120.29,120.26Z"/>
    <path class="cls-1" d="M110.52,187.52c-.37,0-.75,0-1.12-.05-5.86-.32-11.21-3.35-14.54-8.2l-40.07-58.34c-5.94-8.65-3.73-20.47,4.9-26.41,8.73-5.96,20.45-3.73,26.41,4.9l26.23,38.23L218.06,16.96c6.92-7.91,18.91-8.65,26.79-1.76,7.88,6.9,8.68,18.9,1.76,26.78l-121.81,139.04c-3.6,4.15-8.82,6.5-14.27,6.5Z"/>
  </g>
</svg>